PathFileType	4	(X/Y/Z)	./resultDataOpenSim/trcMotMarkerGrf/sub06/qtm-02-06.trc
DataRate	CameraRate	NumFrames	NumMarkers	Units	OrigDataRate	OrigDataStartFrame	OrigNumFrames
250.000000	250.000000	9	24	m	250.000000	311	497
Frame#	Time	L.Toe.Tip			R.Toe.Tip			L.Ankle.Lat			R.Ankle.Lat			L.Ankle.Med			R.Ankle.Med			L.Heel			R.Heel			L.Knee.Lat			R.Knee.Lat			L.Knee.Med			R.Knee.Med			L.Thigh.Upper			R.Thigh.Upper			L.ASIS			R.ASIS			V.Sacral			L.Acromium			R.Acromium			C7			L.Elbow			R.Elbow			L.Wrist.Lat			R.Wrist.Lat
		X1	Y1	Z1	X2	Y2	Z2	X3	Y3	Z3	X4	Y4	Z4	X5	Y5	Z5	X6	Y6	Z6	X7	Y7	Z7	X8	Y8	Z8	X9	Y9	Z9	X10	Y10	Z10	X11	Y11	Z11	X12	Y12	Z12	X13	Y13	Z13	X14	Y14	Z14	X15	Y15	Z15	X16	Y16	Z16	X17	Y17	Z17	X18	Y18	Z18	X19	Y19	Z19	X20	Y20	Z20	X21	Y21	Z21	X22	Y22	Z22	X23	Y23	Z23	X24	Y24	Z24

311	1.24	0.34523575	0.084856518	-0.034533998	0.85171354	0.035773674	0.12666213	0.34609159	0.21218349	-0.073001671	0.71516553	0.059730972	0.15510888	0.36402028	0.22374431	0.0085328325	0.73218183	0.082251373	0.06820943	0.29725377	0.2712453	-0.028699968	0.65917594	0.038316668	0.098034428	0.67841718	0.38749855	-0.10001134	0.77507289	0.44504905	0.183579	0.68240492	0.37723581	0.020900818	0.73624997	0.43294192	0.062013894	0.61513329	0.77751648	-0.094719157	0.65447816	0.80190005	0.24665478	0.69705304	0.83223534	-0.058114198	0.7307367	0.85401745	0.1798195	0.52391595	0.91310069	0.085474421	0.63255057	1.329385	-0.10939536	0.62814127	1.3023887	0.25362816	0.55210516	1.3528163	0.071734978	0.63468067	1.0033808	-0.16420511	0.53554833	0.9997057	0.31226894	0.82738982	0.85044933	-0.14312028	0.66124888	0.79942278	0.371231
312	1.244	0.36010933	0.086276543	-0.034767654	0.85161274	0.035807333	0.12679137	0.35955842	0.21345216	-0.073204323	0.71500171	0.059710632	0.1552651	0.3773701	0.22522622	0.0082399759	0.73213165	0.082424634	0.068404447	0.31001384	0.27206459	-0.028990692	0.65910312	0.038396063	0.098127277	0.69057623	0.39038607	-0.10031987	0.77629573	0.44512852	0.18396822	0.69481936	0.37987806	0.020725102	0.73736857	0.43345085	0.062323924	0.6212096	0.77970729	-0.094560882	0.65837496	0.80272016	0.24675242	0.70319004	0.83426138	-0.057881587	0.73583267	0.8554581	0.18071913	0.52946042	0.91490912	0.085754304	0.63798073	1.3314408	-0.10923645	0.6344182	1.304473	0.25366578	0.55799395	1.3546458	0.072033991	0.63862439	1.0055946	-0.16388101	0.54352668	1.0012366	0.31297271	0.82958661	0.85036613	-0.14437637	0.67217212	0.80227461	0.37088917
313	1.248	0.37515658	0.087523974	-0.035042686	0.85152503	0.035840386	0.12689884	0.3730779	0.21453163	-0.073407565	0.71476832	0.059740581	0.15543569	0.39081111	0.22648666	0.0079316709	0.73210145	0.082603245	0.068582807	0.32281001	0.27262369	-0.029267142	0.65903555	0.038484069	0.098225179	0.70269748	0.39339294	-0.10065511	0.77747837	0.44517196	0.18430947	0.7071614	0.38259543	0.020580155	0.7387624	0.43394675	0.062446399	0.62738031	0.78192545	-0.094501031	0.66233046	0.80355906	0.24685957	0.70933466	0.83628642	-0.057677964	0.74091744	0.85695132	0.18158784	0.53499662	0.91667746	0.085952588	0.64339865	1.3334771	-0.10907267	0.64067979	1.3065587	0.25369584	0.56385747	1.3564861	0.072339491	0.64249066	1.007844	-0.16370911	0.55161526	1.0028379	0.31374096	0.83172824	0.85036173	-0.14564394	0.68306415	0.80520513	0.37050904
314	1.252	0.39039015	0.088607933	-0.03535954	0.85144417	0.035872801	0.12698386	0.38664057	0.21543149	-0.073609952	0.71449131	0.059813481	0.15561184	0.40431863	0.22753847	0.0076498699	0.73208624	0.082778766	0.068739305	0.33561847	0.2729235	-0.029499283	0.65895996	0.038582803	0.098344149	0.71477863	0.39650824	-0.10100925	0.77861716	0.44520448	0.18460474	0.71937763	0.3854061	0.020480229	0.74031149	0.4344092	0.062444257	0.63358202	0.78416136	-0.094424773	0.66655152	0.80448374	0.24712067	0.71548552	0.83830707	-0.057498922	0.74598226	0.85848761	0.18240737	0.54057964	0.91839751	0.086071181	0.64880189	1.3354841	-0.10890146	0.6469216	1.308637	0.25371616	0.56970634	1.3583116	0.072645481	0.64629415	1.0101195	-0.16360007	0.55970333	1.0044651	0.31452873	0.83381687	0.85043007	-0.14692029	0.6939089	0.80819958	0.37008174
315	1.256	0.40581902	0.089537578	-0.035718096	0.85136392	0.035904491	0.12704867	0.4002438	0.21615293	-0.073811513	0.71424886	0.059896186	0.15576075	0.41787463	0.22839272	0.0074161169	0.73207085	0.082948954	0.068879161	0.34842362	0.27296471	-0.029677289	0.65886031	0.038692986	0.098503118	0.72677999	0.39970628	-0.10132929	0.77970939	0.44525141	0.18484964	0.73137661	0.38833428	0.020447393	0.74178119	0.43483943	0.062418115	0.6397499	0.78639299	-0.09423234	0.67101647	0.80548326	0.24751141	0.7216412	0.84031996	-0.057340049	0.75102547	0.8600511	0.1831721	0.54622718	0.92006472	0.08612378	0.65419364	1.3374573	-0.10872023	0.65313799	1.3106997	0.25372387	0.5755477	1.3600958	0.07293879	0.65001903	1.0123912	-0.16354205	0.56769354	1.0060784	0.3152961	0.8358555	0.85055879	-0.14820077	0.70470027	0.81124182	0.36960162
316	1.26	0.42143952	0.090315874	-0.03612147	0.85128085	0.035935378	0.12709819	0.41389633	0.21669452	-0.074008402	0.71410301	0.059949916	0.15585387	0.43147595	0.22904966	0.0072164479	0.73203798	0.083123258	0.069016399	0.36123182	0.27274826	-0.02982311	0.65873052	0.038810835	0.098698095	0.73868971	0.40296525	-0.10157909	0.78075215	0.44532085	0.18504106	0.74311607	0.39139183	0.020487312	0.74309686	0.43523325	0.06242502	0.64586455	0.78859058	-0.093902689	0.67560574	0.80651416	0.24793179	0.72780023	0.84232181	-0.057196925	0.75605765	0.86162729	0.18388622	0.55194638	0.92168662	0.086146456	0.6595851	1.3393964	-0.10852889	0.65933046	1.3127403	0.25372217	0.58138378	1.3618279	0.073210656	0.65366863	1.0146346	-0.16351857	0.57556726	1.0076611	0.31603639	0.83785582	0.85073318	-0.14947441	0.71544277	0.81432585	0.36907535
317	1.264	0.43723047	0.090938308	-0.036567546	0.85119449	0.035966079	0.12713868	0.4276085	0.21705358	-0.074192505	0.71404863	0.05995943	0.1558922	0.44511657	0.22950192	0.007032657	0.73197825	0.083311663	0.069160659	0.37407676	0.27227034	-0.029976618	0.6585887	0.038927244	0.0988861	0.75053356	0.40627349	-0.10176366	0.78175141	0.44540525	0.18519939	0.75466685	0.39455393	0.02058128	0.74443461	0.43557124	0.062474219	0.65199576	0.79073508	-0.093539446	0.68023462	0.80754608	0.24830405	0.73396111	0.84430933	-0.057065135	0.76109597	0.86320273	0.18455912	0.55772979	0.92327334	0.086178119	0.66498717	1.3412989	-0.10833246	0.66550397	1.3147535	0.25371761	0.58721149	1.3635119	0.07346459	0.65727763	1.0168432	-0.16348702	0.58335502	1.0092128	0.31676383	0.83983884	0.85094125	-0.15072813	0.72615503	0.81745815	0.36852519
318	1.268	0.45316268	0.091394526	-0.037043401	0.85110465	0.035997722	0.12717554	0.44138199	0.21722959	-0.074359543	0.71402701	0.059941083	0.15590378	0.45877406	0.22974031	0.0068676782	0.73189257	0.083511924	0.069309908	0.38699181	0.27152276	-0.030152134	0.65846452	0.039034038	0.099016593	0.76232862	0.40962338	-0.10189669	0.78272394	0.44550069	0.18535481	0.76612602	0.39777143	0.020713035	0.74583645	0.43587448	0.062587243	0.65826485	0.79283113	-0.09330201	0.6848777	0.80857198	0.24859159	0.74012233	0.84627929	-0.056940259	0.76615533	0.86476316	0.18520183	0.5635295	0.92482121	0.086227407	0.67040329	1.3431575	-0.10813705	0.67166116	1.3167344	0.25371346	0.59302744	1.3651484	0.073707894	0.66087867	1.019023	-0.16341659	0.59108774	1.010736	0.31749106	0.84182078	0.85117549	-0.15195586	0.73685513	0.82064478	0.36797066
319	1.272	0.46922856	0.091675786	-0.037544431	0.8510111	0.036029921	0.12721183	0.4552137	0.21723183	-0.074524907	0.7139607	0.059929361	0.15592847	0.47242122	0.22975838	0.0067360912	0.731788	0.083713194	0.069455429	0.39996971	0.2705067	-0.030309481	0.65836671	0.039132156	0.0990857	0.77406271	0.41300609	-0.10198154	0.7836777	0.44561215	0.18550143	0.77755473	0.40101175	0.020868606	0.74689031	0.43620866	0.062763549	0.66473484	0.79490101	-0.093247014	0.68956311	0.80960453	0.24879229	0.74628237	0.84822842	-0.056817882	0.7712448	0.8662945	0.18582328	0.56927705	0.92631531	0.086268156	0.67583227	1.3449637	-0.10794287	0.67780249	1.3186772	0.25371007	0.59883433	1.366728	0.073941069	0.66447944	1.0211744	-0.16330133	0.59878476	1.0122304	0.31822088	0.84379679	0.85143126	-0.15316492	0.74754283	0.82387888	0.3674111
